{"title":"Journey 2 The Mysterious Island 2012 CAM XViD - NATiON","uid":7015970,"size":1264413259,"categoryP":"video","categoryS":"movies","magnet":"?xt=urn:btih:301e95a6a8f185a5bfc8dd41cc9dca1b6543894d&amp;dn=Journey+2+The+Mysterious+Island+2012+CAM+XViD+-+NATiON&amp;tr=udp%3A%2F%2Ftracker.openbittorrent.com%3A80&amp;tr=udp%3A%2F%2Fopen.demonii.com%3A1337&amp;tr=udp%3A%2F%2Ftracker.coppersurfer.tk%3A6969&amp;tr=udp%3A%2F%2Fexodus.desync.com%3A6969","seeders":0,"leechers":0,"uploader":"TvTeam","files":4,"time":1328658429,"description":". \n &lt;a href=&quot;\nhttp://www.torrenting.com&quot; rel=&quot;nofollow&quot; target=&quot;_NEW&quot;&gt;\nhttp://www.torrenting.com&lt;/a&gt;          :     Once &amp; For all ;)\n\n\n               www . Torrenting . Com \n\n(((((((((((((= Enjoy No RAR releases =))))))))))))))))))))\n\n\n...................................NFO:....................................\n\n.\n[color=yellow]Movie Info:[/color]\nTitle: Journey 2 The Mysterious Island 2012 CAM XViD - NATiON\nIMDB: &lt;a href=&quot; http://www.imdb.com/title/tt1397514/&quot; rel=&quot;nofollow&quot; target=&quot;_NEW&quot;&gt; http://www.imdb.com/title/tt1397514/&lt;/a&gt;\n[color=yellow]\nPlot:[/plot]\nSean Anderson partners with his mom's boyfriend \non a mission to find his grandfather, who is \nthought to be missing on a mythical island.\n\n[color=yellow]Source: [/color]\nVideo = 26k ...... Thanks ;)\nAudio = 26k ...... Thanks :)\n\n[color=yellow]Release Notes:[/color]\nSource was from 26k and got to say honestly\nnot the best video seems to be over cropped \nand has a lot of camera movement through out\nthe movie.....\nSo fixed it up as much as we could but with\nout the source files to cut up into pieces was\nno point in taking as much time on this as we\nwould if we had the raw source....\nAudio is cam audio and again is your standard cam\naudio.\n\n[color=yellow]Media Info: [/color]\n\nVideo\n\nFormat                                   : MPEG-4 Visual\nFormat profile                           : Advanced Simple@L5\nFormat settings, BVOP                    : 2\nFormat settings, QPel                    : No\nFormat settings, GMC                     : No warppoints\nFormat settings, Matrix                  : Default (H.263)\nCodec ID                                 : XVID\nCodec ID/Hint                            : XviD\nDuration                                 : 1h 29mn\nBit rate                                 : 1 749 Kbps\nWidth                                    : 720 pixels\nHeight                                   : 320 pixels\nDisplay aspect ratio                     : 2.25:1\nFrame rate                               : 29.970 fps\nColor space                              : YUV\nChroma subsampling                       : 4:2:0\nBit depth                                : 8 bits\nScan type                                : Progressive\nCompression mode                         : Lossy\nBits/(Pixel*Frame)                       : 0.253\nStream size                              : 1.09 GiB (93%)\nWriting library                          : XviD 64\n\nAudio\nID                                       : 1\nFormat                                   : MPEG Audio\nFormat version                           : Version 1\nFormat profile                           : Layer 3\nCodec ID                                 : 55\nCodec ID/Hint                            : MP3\nDuration                                 : 1h 29mn\nSource duration                          : 1h 29mn\nBit rate mode                            : Constant\nBit rate                                 : 128 Kbps\nChannel(s)                               : 2 channels\nSampling rate                            : 44.1 KHz\nCompression mode                         : Lossy\nStream size                              : 81.6 MiB (7%)\nAlignment                                : Split accross interleaves\nInterleave, duration                     : 26 ms (0.78 video frame)\n\n\n[color=yellow]Screenshots: [/color]\n[IMG]http://i.imgur.com/Kpc5t.png[/IMG]\n[IMG]http://i.imgur.com/9Rx9U.png[/IMG]\n[IMG]http://i.imgur.com/9Ezgn.png[/IMG]\n[IMG]http://i.imgur.com/cPvt1.png[/IMG]\n[IMG]http://i.imgur.com/9IY9z.png[/IMG]\n[IMG]http://i.imgur.com/Zp0oZ.png[/IMG]\n[IMG]http://i.imgur.com/IXseJ.png[/IMG]\n\n[color=Red]Greets:[/color] [color=yellow]\nComing Soon... [/color]","torrent":{"xt":"urn:btih:301e95a6a8f185a5bfc8dd41cc9dca1b6543894d","amp;dn":"Journey+2+The+Mysterious+Island+2012+CAM+XViD+-+NATiON","amp;tr":["udp%3A%2F%2Ftracker.openbittorrent.com%3A80","udp%3A%2F%2Fopen.demonii.com%3A1337","udp%3A%2F%2Ftracker.coppersurfer.tk%3A6969","udp%3A%2F%2Fexodus.desync.com%3A6969"],"infoHash":"301e95a6a8f185a5bfc8dd41cc9dca1b6543894d","infoHashBuffer":{"type":"Buffer","data":[48,30,149,166,168,241,133,165,191,200,221,65,204,157,202,27,101,67,137,77]},"announce":[],"urlList":[]}}